HIERARCHY
ROOT Hips
{
	OFFSET -0.148888 88.448799 3.733362
	CHANNELS 6 Xposition Yposition Zposition Zrotation Yrotation Xrotation 
	JOINT Spine
	{
		OFFSET 0.000000 8.814246 -2.080107
		CHANNELS 3 Zrotation Yrotation Xrotation
		JOINT Spine1
		{
			OFFSET 0.000000 8.844141 0.000000
			CHANNELS 3 Zrotation Yrotation Xrotation
			JOINT Spine2
			{
				OFFSET -0.000000 11.682268 -0.000000
				CHANNELS 3 Zrotation Yrotation Xrotation
				JOINT Spine3
				{
					OFFSET -0.000000 11.746700 -0.000000
					CHANNELS 3 Zrotation Yrotation Xrotation
					JOINT Neck
					{
						OFFSET 0.000000 17.658264 -0.000000
						CHANNELS 3 Zrotation Yrotation Xrotation
						JOINT Neck1
						{
							OFFSET 0.000000 5.101515 0.000000
							CHANNELS 3 Zrotation Yrotation Xrotation
							JOINT Head
							{
								OFFSET -0.000000 5.101515 -0.000000
								CHANNELS 3 Zrotation Yrotation Xrotation
								JOINT HeadEnd
								{
									OFFSET 0.000000 11.655085 -0.000000
									CHANNELS 3 Zrotation Yrotation Xrotation
									End Site
									{
										OFFSET 0.000000 0.000000 0.000000
									}
								}
							}
						}
					}
					JOINT RightShoulder
					{
						OFFSET -2.625389 11.175210 -0.000000
						CHANNELS 3 Zrotation Yrotation Xrotation
						JOINT RightArm
						{
							OFFSET -0.000000 10.434715 0.000000
							CHANNELS 3 Zrotation Yrotation Xrotation
							JOINT RightForeArm
							{
								OFFSET 0.000000 29.628420 0.000000
								CHANNELS 3 Zrotation Yrotation Xrotation
								JOINT RightHand
								{
									OFFSET 0.000000 22.857611 0.000000
									CHANNELS 3 Zrotation Yrotation Xrotation
									JOINT RightHandThumb1
									{
										OFFSET -2.867323 3.959563 2.944291
										CHANNELS 3 Zrotation Yrotation Xrotation
										JOINT RightHandThumb2
										{
											OFFSET -0.000000 3.350399 0.000000
											CHANNELS 3 Zrotation Yrotation Xrotation
											JOINT RightHandThumb3
											{
												OFFSET -0.000000 3.756509 0.000000
												CHANNELS 3 Zrotation Yrotation Xrotation
												JOINT RightHandThumb4
												{
													OFFSET 0.000000 3.147345 0.000000
													CHANNELS 3 Zrotation Yrotation Xrotation
													End Site
													{
														OFFSET 0.000000 0.000000 0.000000
													}
												}
											}
										}
									}
									JOINT RightHandIndex1
									{
										OFFSET -0.086752 10.030893 2.345280
										CHANNELS 3 Zrotation Yrotation Xrotation
										JOINT RightHandIndex2
										{
											OFFSET 0.000000 4.061090 -0.000000
											CHANNELS 3 Zrotation Yrotation Xrotation
											JOINT RightHandIndex3
											{
												OFFSET -0.000000 3.248873 0.000000
												CHANNELS 3 Zrotation Yrotation Xrotation
												JOINT RightHandIndex4
												{
													OFFSET 0.000000 2.639709 -0.000000
													CHANNELS 3 Zrotation Yrotation Xrotation
													End Site
													{
														OFFSET 0.000000 0.000000 0.000000
													}
												}
											}
										}
									}
									JOINT RightHandMiddle1
									{
										OFFSET 0.104102 9.502952 0.006768
										CHANNELS 3 Zrotation Yrotation Xrotation
										JOINT RightHandMiddle2
										{
											OFFSET 0.000000 4.568727 0.000000
											CHANNELS 3 Zrotation Yrotation Xrotation
											JOINT RightHandMiddle3
											{
												OFFSET 0.000000 3.654981 -0.000000
												CHANNELS 3 Zrotation Yrotation Xrotation
												JOINT RightHandMiddle4
												{
													OFFSET -0.000000 2.741236 0.000000
													CHANNELS 3 Zrotation Yrotation Xrotation
													End Site
													{
														OFFSET 0.000000 0.000000 0.000000
													}
												}
											}
										}
									}
									JOINT RightHandRing1
									{
										OFFSET 0.086752 8.921708 -2.267442
										CHANNELS 3 Zrotation Yrotation Xrotation
										JOINT RightHandRing2
										{
											OFFSET -0.000000 4.061090 0.000000
											CHANNELS 3 Zrotation Yrotation Xrotation
											JOINT RightHandRing3
											{
												OFFSET -0.000000 3.654981 0.000000
												CHANNELS 3 Zrotation Yrotation Xrotation
												JOINT RightHandRing4
												{
													OFFSET -0.000000 2.741236 0.000000
													CHANNELS 3 Zrotation Yrotation Xrotation
													End Site
													{
														OFFSET 0.000000 0.000000 0.000000
													}
												}
											}
										}
									}
									JOINT RightHandPinky1
									{
										OFFSET -0.173504 7.976997 -4.467199
										CHANNELS 3 Zrotation Yrotation Xrotation
										JOINT RightHandPinky2
										{
											OFFSET -0.000000 3.350399 0.000000
											CHANNELS 3 Zrotation Yrotation Xrotation
											JOINT RightHandPinky3
											{
												OFFSET -0.000000 2.842763 0.000000
												CHANNELS 3 Zrotation Yrotation Xrotation
												JOINT RightHandPinky4
												{
													OFFSET 0.000000 2.639709 -0.000000
													CHANNELS 3 Zrotation Yrotation Xrotation
													End Site
													{
														OFFSET 0.000000 0.000000 0.000000
													}
												}
											}
										}
									}
									JOINT RightForeArmEnd
									{
										OFFSET 0.000000 0.000000 0.000000
										CHANNELS 3 Zrotation Yrotation Xrotation
										End Site
										{
											OFFSET 0.000000 0.000000 0.000000
										}
									}
								}
								JOINT RightArmEnd
								{
									OFFSET 0.000000 0.000000 0.000000
									CHANNELS 3 Zrotation Yrotation Xrotation
									End Site
									{
										OFFSET 0.000000 0.000000 0.000000
									}
								}
							}
						}
					}
					JOINT LeftShoulder
					{
						OFFSET 2.625389 11.175210 0.000000
						CHANNELS 3 Zrotation Yrotation Xrotation
						JOINT LeftArm
						{
							OFFSET -0.000000 10.813635 -0.000000
							CHANNELS 3 Zrotation Yrotation Xrotation
							JOINT LeftForeArm
							{
								OFFSET 0.000000 28.724781 0.000000
								CHANNELS 3 Zrotation Yrotation Xrotation
								JOINT LeftHand
								{
									OFFSET 0.644384 25.716167 -0.328871
									CHANNELS 3 Zrotation Yrotation Xrotation
									JOINT LeftHandThumb1
									{
										OFFSET 2.867323 3.959563 2.944291
										CHANNELS 3 Zrotation Yrotation Xrotation
										JOINT LeftHandThumb2
										{
											OFFSET 0.000000 3.350399 -0.000000
											CHANNELS 3 Zrotation Yrotation Xrotation
											JOINT LeftHandThumb3
											{
												OFFSET 0.000000 3.756509 0.000000
												CHANNELS 3 Zrotation Yrotation Xrotation
												JOINT LeftHandThumb4
												{
													OFFSET -0.000000 3.100000 0.000000
													CHANNELS 3 Zrotation Yrotation Xrotation
													End Site
													{
														OFFSET 0.000000 0.000000 0.000000
													}
												}
											}
										}
									}
									JOINT LeftHandIndex1
									{
										OFFSET 0.086752 10.030893 2.345280
										CHANNELS 3 Zrotation Yrotation Xrotation
										JOINT LeftHandIndex2
										{
											OFFSET -0.000000 4.061090 0.000000
											CHANNELS 3 Zrotation Yrotation Xrotation
											JOINT LeftHandIndex3
											{
												OFFSET 0.000000 3.248873 0.000000
												CHANNELS 3 Zrotation Yrotation Xrotation
												JOINT LeftHandIndex4
												{
													OFFSET -0.000000 2.639709 -0.000000
													CHANNELS 3 Zrotation Yrotation Xrotation
													End Site
													{
														OFFSET 0.000000 0.000000 0.000000
													}
												}
											}
										}
									}
									JOINT LeftHandMiddle1
									{
										OFFSET -0.104102 9.502952 0.006768
										CHANNELS 3 Zrotation Yrotation Xrotation
										JOINT LeftHandMiddle2
										{
											OFFSET -0.000000 4.568727 -0.000000
											CHANNELS 3 Zrotation Yrotation Xrotation
											JOINT LeftHandMiddle3
											{
												OFFSET 0.000000 3.654981 0.000000
												CHANNELS 3 Zrotation Yrotation Xrotation
												JOINT LeftHandMiddle4
												{
													OFFSET 0.000000 2.741236 0.000000
													CHANNELS 3 Zrotation Yrotation Xrotation
													End Site
													{
														OFFSET 0.000000 0.000000 0.000000
													}
												}
											}
										}
									}
									JOINT LeftHandRing1
									{
										OFFSET -0.086752 8.921708 -2.267442
										CHANNELS 3 Zrotation Yrotation Xrotation
										JOINT LeftHandRing2
										{
											OFFSET 0.000000 4.061090 0.000000
											CHANNELS 3 Zrotation Yrotation Xrotation
											JOINT LeftHandRing3
											{
												OFFSET 0.000000 3.654981 0.000000
												CHANNELS 3 Zrotation Yrotation Xrotation
												JOINT LeftHandRing4
												{
													OFFSET -0.000000 2.741236 0.000000
													CHANNELS 3 Zrotation Yrotation Xrotation
													End Site
													{
														OFFSET 0.000000 0.000000 0.000000
													}
												}
											}
										}
									}
									JOINT LeftHandPinky1
									{
										OFFSET 0.173504 7.976997 -4.467199
										CHANNELS 3 Zrotation Yrotation Xrotation
										JOINT LeftHandPinky2
										{
											OFFSET -0.000000 3.350399 -0.000000
											CHANNELS 3 Zrotation Yrotation Xrotation
											JOINT LeftHandPinky3
											{
												OFFSET -0.000000 2.842763 0.000000
												CHANNELS 3 Zrotation Yrotation Xrotation
												JOINT LeftHandPinky4
												{
													OFFSET 0.000000 2.639709 0.000000
													CHANNELS 3 Zrotation Yrotation Xrotation
													End Site
													{
														OFFSET 0.000000 0.000000 0.000000
													}
												}
											}
										}
									}
									JOINT LeftForeArmEnd
									{
										OFFSET 0.000000 0.000000 0.000000
										CHANNELS 3 Zrotation Yrotation Xrotation
										End Site
										{
											OFFSET 0.000000 0.000000 0.000000
										}
									}
								}
								JOINT LeftArmEnd
								{
									OFFSET 0.000000 0.000000 0.000000
									CHANNELS 3 Zrotation Yrotation Xrotation
									End Site
									{
										OFFSET 0.000000 0.000000 0.000000
									}
								}
							}
						}
					}
				}
			}
		}
	}
	JOINT RightUpLeg
	{
		OFFSET -11.289943 -0.000000 -0.000000
		CHANNELS 3 Zrotation Yrotation Xrotation
		JOINT RightLeg
		{
			OFFSET 0.000000 -38.200325 0.000000
			CHANNELS 3 Zrotation Yrotation Xrotation
			JOINT RightFoot
			{
				OFFSET 0.000000 -39.900856 -0.000000
				CHANNELS 3 Zrotation Yrotation Xrotation
				JOINT RightToeBase
				{
					OFFSET 0.000000 0.000000 15.261641
					CHANNELS 3 Zrotation Yrotation Xrotation
					JOINT RightToeBaseEnd
					{
						OFFSET -0.000000 -0.000000 7.370709
						CHANNELS 3 Zrotation Yrotation Xrotation
						End Site
						{
							OFFSET 0.000000 0.000000 0.000000
						}
					}
				}
				JOINT RightLegEnd
				{
					OFFSET 0.000000 0.000000 0.000000
					CHANNELS 3 Zrotation Yrotation Xrotation
					End Site
					{
						OFFSET 0.000000 0.000000 0.000000
					}
				}
			}
			JOINT RightUpLegEnd
			{
				OFFSET 0.000000 0.000000 0.000000
				CHANNELS 3 Zrotation Yrotation Xrotation
				End Site
				{
					OFFSET 0.000000 0.000000 0.000000
				}
			}
		}
	}
	JOINT LeftUpLeg
	{
		OFFSET 11.315661 -0.000000 0.000000
		CHANNELS 3 Zrotation Yrotation Xrotation
		JOINT LeftLeg
		{
			OFFSET -0.000000 -38.200325 -0.000000
			CHANNELS 3 Zrotation Yrotation Xrotation
			JOINT LeftFoot
			{
				OFFSET 0.000000 -39.900856 -0.000000
				CHANNELS 3 Zrotation Yrotation Xrotation
				JOINT LeftToeBase
				{
					OFFSET 0.000000 0.000000 15.261641
					CHANNELS 3 Zrotation Yrotation Xrotation
					JOINT LeftToeBaseEnd
					{
						OFFSET 0.000000 -0.000000 7.539996
						CHANNELS 3 Zrotation Yrotation Xrotation
						End Site
						{
							OFFSET 0.000000 0.000000 0.000000
						}
					}
				}
				JOINT LeftLegEnd
				{
					OFFSET 0.000000 0.000000 0.000000
					CHANNELS 3 Zrotation Yrotation Xrotation
					End Site
					{
						OFFSET 0.000000 0.000000 0.000000
					}
				}
			}
			JOINT LeftUpLegEnd
			{
				OFFSET 0.000000 0.000000 0.000000
				CHANNELS 3 Zrotation Yrotation Xrotation
				End Site
				{
					OFFSET 0.000000 0.000000 0.000000
				}
			}
		}
	}
}
MOTION
Frames: 4
Frame Time: 0.016667
-5.901733 87.972740 13.225615 1.544327 16.906437 -10.596610 2.747067 -0.422450 6.488042 1.715269 0.019764 3.092411 -5.671981 5.518038 3.727358 -3.525125 1.805709 2.441838 7.778434 -8.654493 4.812264 -0.166888 -6.880785 -5.084153 1.587518 -0.788843 -20.548361 0.000000 0.000000 0.000000 86.688988 0.856635 10.763485 62.440887 -6.070284 12.167747 -0.389976 25.481207 87.775200 25.650215 43.754070 20.159309 19.761265 -2.137805 36.122345 -0.000015 0.000028 -47.349567 0.000014 0.000015 -33.014484 0.000011 -0.000007 -0.000008 54.673248 0.105305 -6.733240 37.310955 0.122028 -0.030043 37.261154 0.143008 -0.075196 -0.000007 0.000016 -0.000006 52.780609 0.005476 -5.116755 36.026539 0.042902 -0.008034 36.208855 0.051027 0.001064 0.000027 -0.000100 -0.000002 54.252804 -0.040134 -3.139510 37.148689 -0.016051 -0.041337 37.282032 -0.020323 -0.020230 -0.000001 -0.000813 0.000028 53.601955 -0.033875 -2.386600 36.349983 0.022372 -0.145122 36.234764 -0.072032 -0.076679 -0.000789 -0.000014 -0.000042 0.000000 0.000000 0.000000 0.000000 0.000000 0.000000 -87.302010 0.285016 2.531679 -68.923225 9.347846 -12.896833 -0.527505 -16.831781 77.428360 3.554819 -33.474636 -0.373868 -23.900368 1.872533 34.173237 0.000018 0.000028 -58.802250 0.000041 0.000004 -41.067333 0.003037 -0.000002 0.003450 -76.842720 0.081399 -10.422053 -52.291798 0.157822 0.443229 -52.360352 0.183532 0.392238 0.000016 -0.000217 -0.000006 -75.217422 0.020648 -7.226964 -51.830772 0.039592 0.150922 -51.933014 0.043508 0.107747 0.000643 -0.000029 0.000214 -78.678520 -0.022592 -2.838620 -55.321251 -0.075120 -0.263266 -55.393131 -0.073492 -0.159724 0.002594 0.000013 0.000004 -78.869125 -0.085945 2.942598 -54.815849 -0.301270 -0.648589 -55.182125 -0.290743 -0.423816 -0.001987 -0.000020 -0.000010 0.000000 0.000000 0.000000 0.000000 0.000000 0.000000 -13.295546 -16.794075 18.500498 -0.297775 -1.117739 14.297869 9.641641 -19.351990 13.152553 -1.180369 1.255672 -19.240501 0.000000 0.000000 0.000000 0.000000 0.000000 0.000000 0.000000 0.000000 0.000000 1.863402 -14.723591 -0.059653 0.257163 0.562400 18.820742 -0.444027 4.393561 18.466017 0.566904 -1.145006 -20.948593 0.000000 0.000000 0.000000 0.000000 0.000000 0.000000 0.000000 0.000000 0.000000 
-5.136609 88.050743 13.374029 1.817306 16.974627 -10.372357 2.607783 -0.399406 6.485281 1.744329 0.007100 2.963430 -5.836535 5.612916 3.689801 -3.633917 1.811421 2.246950 7.918789 -8.775570 4.849186 -0.148060 -6.988626 -5.120040 1.655992 -0.799194 -20.523993 0.000000 0.000000 0.000000 86.375992 0.965451 10.748757 61.765358 -3.871847 12.958217 -0.421871 25.853863 90.925240 27.652048 43.614388 22.012821 19.559828 -2.159033 36.164036 -0.000015 0.000028 -46.914600 0.000015 0.000015 -32.726307 0.000011 -0.000006 -0.000008 53.723011 0.107644 -6.715624 36.618515 0.093800 -0.006367 36.558449 0.116060 -0.056826 -0.000006 0.000016 -0.000005 51.981541 0.005970 -5.228312 35.392590 0.033331 -0.001046 35.588329 0.043128 0.005387 0.000027 -0.000098 -0.000001 53.705486 -0.037094 -3.293080 36.683800 -0.003340 -0.034985 36.799385 -0.012165 -0.016304 -0.000002 -0.000827 0.000029 53.161335 -0.037620 -2.657699 36.000923 0.058674 -0.106348 35.862740 -0.044194 -0.048392 -0.000726 -0.000014 -0.000039 0.000000 0.000000 0.000000 0.000000 0.000000 0.000000 -87.098190 0.248457 2.592007 -68.430008 8.990834 -13.326097 -0.536751 -16.835911 77.636543 2.797523 -33.710423 0.079731 -23.521517 1.894276 34.328522 0.000018 0.000028 -57.859634 0.000037 0.000003 -40.402477 0.003189 -0.000001 0.003544 -75.074181 0.084063 -10.555683 -50.991592 0.132951 0.381494 -51.078579 0.158417 0.347143 0.000016 -0.000326 -0.000007 -73.472038 0.022200 -7.481677 -50.585308 0.030711 0.127508 -50.683220 0.036636 0.090816 0.000667 -0.000029 0.000211 -76.915115 -0.022716 -3.192707 -54.069588 -0.058472 -0.231700 -54.146023 -0.062646 -0.138738 0.002424 0.000014 0.000004 -77.154045 -0.088683 2.478543 -53.680790 -0.252586 -0.550813 -54.031151 -0.253064 -0.357255 -0.001880 -0.000020 -0.000010 0.000000 0.000000 0.000000 0.000000 0.000000 0.000000 -13.862660 -16.431181 18.417215 -0.302231 -1.118588 14.437678 9.886003 -19.532902 13.514909 -1.226269 1.230415 -19.409628 0.000000 0.000000 0.000000 0.000000 0.000000 0.000000 0.000000 0.000000 0.000000 1.145126 -14.725192 0.276936 0.245333 0.525330 18.431032 -0.046355 4.266282 18.562433 0.506764 -1.155884 -20.889683 0.000000 0.000000 0.000000 0.000000 0.000000 0.000000 0.000000 0.000000 0.000000 
-4.407461 88.131020 13.515623 2.050831 17.069090 -10.139328 2.481697 -0.386484 6.458375 1.754752 -0.008269 2.829457 -5.972308 5.634644 3.632611 -3.744791 1.789669 2.087233 8.030772 -8.883294 4.899036 -0.133065 -7.078912 -5.131029 1.720387 -0.810401 -20.507830 0.000000 0.000000 0.000000 86.059105 1.066678 10.729814 61.044613 -1.558764 13.830406 -0.466354 26.202324 93.903168 29.303768 43.547676 23.667730 19.277683 -2.183871 36.233692 -0.000015 0.000028 -46.296005 0.000015 0.000015 -32.307629 0.000010 -0.000005 -0.000008 52.429955 0.108769 -6.639793 35.674767 0.056568 0.025425 35.604065 0.080573 -0.033311 -0.000006 0.000017 -0.000005 50.858730 0.006103 -5.304804 34.512302 0.020467 0.008841 34.720768 0.032600 0.011708 0.000027 -0.000099 -0.000000 52.863373 -0.033711 -3.431751 35.986530 0.015058 -0.031195 36.081322 -0.000620 -0.014060 -0.000003 -0.000827 0.000030 52.440392 -0.042258 -2.932977 35.433846 0.110654 -0.075530 35.271652 -0.003705 -0.026167 -0.000654 -0.000014 -0.000036 0.000000 0.000000 0.000000 0.000000 0.000000 0.000000 -86.871490 0.220796 2.706345 -67.895683 8.625448 -13.553552 -0.543574 -16.811131 77.624809 2.070841 -33.770676 0.391885 -23.037725 1.920253 34.526226 0.000018 0.000028 -56.659946 0.000035 0.000002 -39.556664 0.003284 0.000000 0.003606 -72.777901 0.086351 -10.649654 -49.342175 0.100832 0.302311 -49.454414 0.126125 0.288248 0.000016 -0.000454 -0.000007 -71.193329 0.023242 -7.728725 -48.991501 0.019184 0.097339 -49.086182 0.027805 0.069242 0.000682 -0.000029 0.000208 -74.601768 -0.022921 -3.580123 -52.454273 -0.037287 -0.191556 -52.533302 -0.048801 -0.111653 0.002206 0.000014 0.000004 -74.895073 -0.093132 1.909238 -52.199528 -0.190812 -0.426524 -52.526558 -0.204488 -0.270812 -0.001751 -0.000021 -0.000011 0.000000 0.000000 0.000000 0.000000 0.000000 0.000000 -14.388270 -16.110189 18.310009 -0.307233 -1.119418 14.573388 10.114086 -19.793064 13.916196 -1.270250 1.202418 -19.588781 0.000000 0.000000 0.000000 0.000000 0.000000 0.000000 0.000000 0.000000 0.000000 0.466955 -14.781212 0.579414 0.234323 0.490114 18.039017 0.350302 4.074465 18.669649 0.445791 -1.163559 -20.840883 0.000000 0.000000 0.000000 0.000000 0.000000 0.000000 0.000000 0.000000 0.000000 
-3.714164 88.211578 13.651148 2.244144 17.187740 -9.908232 2.373975 -0.384164 6.407633 1.743888 -0.024480 2.694869 -6.073993 5.599159 3.559411 -3.855153 1.751154 1.969950 8.106965 -8.966867 4.972574 -0.119779 -7.136147 -5.114955 1.776342 -0.825004 -20.502573 0.000000 0.000000 0.000000 85.743652 1.155439 10.696812 60.248161 0.787085 14.733644 -0.516340 26.523457 96.649788 30.613302 43.504940 25.084808 18.929232 -2.209989 36.328156 -0.000015 0.000028 -45.529449 0.000015 0.000015 -31.782553 0.000009 -0.000004 -0.000008 50.849171 0.108789 -6.503026 34.513889 0.013838 0.062135 34.431828 0.039795 -0.006972 -0.000005 0.000017 -0.000004 49.455780 0.005969 -5.344835 33.414928 0.005487 0.020485 33.634136 0.020430 0.019233 0.000027 -0.000102 0.000001 51.744484 -0.029946 -3.562860 35.072521 0.037003 -0.029096 35.144779 0.013002 -0.012862 -0.000003 -0.000822 0.000030 51.445442 -0.046824 -3.218010 34.658474 0.171905 -0.049870 34.472462 0.044635 -0.007778 -0.000574 -0.000013 -0.000032 0.000000 0.000000 0.000000 0.000000 0.000000 0.000000 -86.635757 0.205127 2.846507 -67.294525 8.248083 -13.568887 -0.555999 -16.759333 77.391678 1.404711 -33.546539 0.554372 -22.444248 1.949031 34.769585 0.000018 0.000028 -55.186817 0.000033 0.000001 -38.519653 0.003320 0.000001 0.003640 -69.896431 0.087782 -10.707083 -47.315090 0.063422 0.211545 -47.459595 0.088477 0.220201 0.000015 -0.000591 -0.000008 -68.315834 0.023608 -7.976489 -47.014648 0.005729 0.062752 -47.106941 0.017541 0.044779 0.000680 -0.000029 0.000204 -71.649803 -0.023200 -4.020583 -50.424629 -0.012875 -0.145573 -50.505474 -0.032780 -0.080462 0.001950 0.000014 0.000004 -71.997337 -0.099321 1.214432 -50.311447 -0.119741 -0.284044 -50.610390 -0.147762 -0.170908 -0.001608 -0.000021 -0.000011 0.000000 0.000000 0.000000 0.000000 0.000000 0.000000 -14.870419 -15.828072 18.184221 -0.312655 -1.119848 14.718999 10.324501 -20.109358 14.346204 -1.309360 1.171913 -19.770948 0.000000 0.000000 0.000000 0.000000 0.000000 0.000000 0.000000 0.000000 0.000000 -0.169404 -14.890976 0.850940 0.224135 0.456818 17.663322 0.745909 3.840524 18.779642 0.385417 -1.168294 -20.804165 0.000000 0.000000 0.000000 0.000000 0.000000 0.000000 0.000000 0.000000 0.000000 
